<?xml version="1.0" standalone="no"?><!DOCTYPE svg PUBLIC "-//W3C//DTD SVG 1.1//EN" "http://www.w3.org/Graphics/SVG/1.1/DTD/svg11.dtd"><svg t="1703125936926" class="icon" viewBox="0 0 1024 1024" version="1.1" xmlns="http://www.w3.org/2000/svg" p-id="6179" xmlns:xlink="http://www.w3.org/1999/xlink" width="200" height="200"><path d="M64 192a32 32 0 0 1 32-32h832a32 32 0 0 1 0 64H96a32 32 0 0 1-32-32zM64 832a32 32 0 0 1 32-32h832a32 32 0 0 1 0 64H96a32 32 0 0 1-32-32zM96 480a32 32 0 0 0 0 64h832a32 32 0 0 0 0-64H96z" fill="#131313" p-id="6180"></path></svg>