<?xml version="1.0" standalone="no"?><!DOCTYPE svg PUBLIC "-//W3C//DTD SVG 1.1//EN" "http://www.w3.org/Graphics/SVG/1.1/DTD/svg11.dtd"><svg t="1703666584653" class="icon" viewBox="0 0 1036 1024" version="1.1" xmlns="http://www.w3.org/2000/svg" p-id="50448" xmlns:xlink="http://www.w3.org/1999/xlink" width="202.34375" height="200"><path d="M128.29931 16.658341c144.149974 18.010588 295.802574 38.030172 391.750947 161.311073 156.497644-74.880441 323.879553-67.641941 487.224096-13.166565 4.388175 280.914596 8.772271 561.832252 13.165545 842.759086-221.211755-73.74337-312.717903-68.035581-526.725831 3.293936-148.536109-122.331473-320.080819-56.478252-483.93016-6.585832L0.003059 146.878943c-0.226394-20.639618 62.24111-26.78082 62.677582 4.140365l9.52284 679.300325c0.291661 20.994507 62.818313 16.809271 62.640869-5.395732L128.29931 16.658341 128.29931 16.658341zM607.680167 398.255196c-17.242683 11.538973-30.510208 43.658417 1.812175 49.583422 7.808565 1.43689 13.98546-2.217033 29.220168-7.945218 38.174982-15.588577 66.230545-18.05138 108.232816-15.730328 34.244695 1.894778 99.032231 35.75909 124.993136 29.795332 20.901705-4.803231 20.006326-26.494258 5.423266-36.425015-38.270843-26.080221-92.520844-39.667961-140.626584-43.09855C699.466759 371.778274 640.713346 376.135856 607.680167 398.255196L607.680167 398.255196zM595.546654 275.156837c-20.712024 14.43111-36.117037 53.811489 3.32147 60.280045 9.533038 1.561305 16.978556-3.008393 35.370548-10.330517 46.082468-19.827862 80.146659-23.45731 131.287307-21.584968 41.701431 1.531731 121.262729 41.243544 152.69789 33.411523 25.313336-6.314567 23.729595-32.68339 5.769997-44.425302-47.137955-30.857958-113.425609-46.141616-172.016874-49.233632C706.593082 240.880529 635.228892 247.511232 595.546654 275.156837z" fill="#0e932e" p-id="50449"></path></svg>